<?xml version="1.0" encoding="UTF-8" standalone="no"?>
<svg
   xmlns:dc="http://purl.org/dc/elements/1.1/"
   xmlns:cc="http://creativecommons.org/ns#"
   xmlns:rdf="http://www.w3.org/1999/02/22-rdf-syntax-ns#"
   xmlns:svg="http://www.w3.org/2000/svg"
   xmlns="http://www.w3.org/2000/svg"
   xmlns:sodipodi="http://sodipodi.sourceforge.net/DTD/sodipodi-0.dtd"
   xmlns:inkscape="http://www.inkscape.org/namespaces/inkscape"
   xml:space="preserve"
   width="137.29446mm"
   height="130.33476mm"
   version="1.1"
   style="clip-rule:evenodd;fill-rule:evenodd;image-rendering:optimizeQuality;shape-rendering:geometricPrecision;text-rendering:geometricPrecision"
   viewBox="0 0 30933.695 29365.644"
   id="svg26"
   sodipodi:docname="logo_transparent_no_text.svg"
   inkscape:version="1.0.1 (c497b03c, 2020-09-10)"><metadata
   id="metadata30"><rdf:RDF><cc:Work
       rdf:about=""><dc:format>image/svg+xml</dc:format><dc:type
         rdf:resource="http://purl.org/dc/dcmitype/StillImage" /><dc:title></dc:title></cc:Work></rdf:RDF></metadata><sodipodi:namedview
   pagecolor="#ffffff"
   bordercolor="#666666"
   borderopacity="1"
   objecttolerance="10"
   gridtolerance="10"
   guidetolerance="10"
   inkscape:pageopacity="0"
   inkscape:pageshadow="2"
   inkscape:window-width="2560"
   inkscape:window-height="1395"
   id="namedview28"
   showgrid="false"
   inkscape:zoom="0.42332308"
   inkscape:cx="265.39843"
   inkscape:cy="451.82035"
   inkscape:window-x="1440"
   inkscape:window-y="184"
   inkscape:window-maximized="0"
   inkscape:current-layer="Layer_x0020_1" />
 <defs
   id="defs17">
  <style
   type="text/css"
   id="style10">
   <![CDATA[
    .fil2 {fill:none}
    .fil0 {fill:gray;fill-rule:nonzero}
    .fil1 {fill:url(#id0)}
   ]]>
  </style>
  <linearGradient
   id="id0"
   gradientUnits="userSpaceOnUse"
   x1="40426.34"
   y1="18784.84"
   x2="22510.33"
   y2="44126.5"
   gradientTransform="translate(-17039.434,-12392.316)">
   <stop
   offset="0"
   style="stop-opacity:1; stop-color:#FF6600"
   id="stop12" />
   <stop
   offset="1"
   style="stop-opacity:1; stop-color:#AD0051"
   id="stop14" />
  </linearGradient>
 </defs>
 <g
   id="Layer_x0020_1"
   transform="translate(-91.635313,-152.16577)">
  <metadata
   id="CorelCorpID_0Corel-Layer" />
  <g
   id="_1435387811712"
   transform="translate(0,140.82177)">
   <path
   class="fil1"
   d="m 15196.306,8782.184 c -116.26,16.76 -226.48,43.15 -329.02,76.67 l -28.3,7.71 c -181.96,47.27 -366.4,106.91 -549.73,166.01 -909.24,293.56 -1827.55,589.3 -3298.32,-49.48 -897.97,-389.47 -1330.0505,-936.16 -1743.1705,-1459.51 -377.66,-477.7 -736.9,-932.6 -1533.45,-1120.06 -415.85,-98.12 -846.01,-58.83 -1232.46,94.56 -391.68,156.93 -740.48,427.68 -987.87,788.83 -145.39,212.49 -244.35,431.53 -297.66,659.68 -53.89,230.6 -62.68,474.68 -27.78,734.15 53.33,395.8 216.32,765.49 459.59,1067.56 239.66,297.68 556.58,529.66 922.42,656.37 772.09,267.44 1321.26,75.32 1897.64,-126.71 628.07,-220.15 1283.88,-449.67 2251.4005,-298.49 1585.66,247.64 2202.47,990.05 2814.02,1725.31 270.46,325.14 540.11,649.5 895.49,891.1 184.71,125.61 374.1,216.32 563.21,275.13 196.79,61.58 392.22,88.23 580.51,85.48 h 11.54 c 188.27,2.75 383.7,-23.91 580.51,-85.48 188.56,-58.81 377.93,-149.52 562.91,-275.13 355.4,-241.6 625.03,-565.95 895.49,-891.1 611.58,-735.25 1228.36,-1477.67 2814.05,-1725.31 967.5,-151.18 1623.6,78.61 2251.38,298.49 576.39,202.03 1125.28,394.43 1897.64,126.71 365.83,-126.71 682.75,-358.69 922.44,-656.37 243.24,-302.07 406.23,-671.76 459.56,-1067.56 34.9,-259.47 26.11,-503.54 -27.76,-734.15 -53.33,-228.15 -152.29,-447.49 -297.68,-659.68 -247.39,-361.15 -596.17,-631.9 -987.85,-786.92 -386.47,-155.31 -816.61,-194.6 -1232.49,-96.48 -796.56,187.46 -1155.79,642.36 -1533.45,1120.06 -413.1,523.35 -845.2,1070.04 -1741.24,1459.51 -1472.71,638.77 -2391.03,343.03 -3300.26,49.48 -183.33,-59.1 -367.77,-118.74 -549.73,-166.01 l -28.3,-7.71 c -102.54,-33.53 -212.76,-59.91 -328.75,-76.67 -117.36,-17.33 -236.91,-25.3 -356.48,-23.66 h -11.54 c -119.57,-1.64 -239.14,6.33 -356.51,23.66 z m 1198.13,-8425.33 c -212.47,-213.57 -508.23,-345.509998 -836.12,-345.509998 -326.54,0 -622.3,132.479998 -836.15,346.319998 -213.84,213.84 -346.32,509.6 -346.32,836.15 0,327.89 131.94,623.66 344.41,836.12 215.76,213.84 511.52,346.32 838.06,346.32 327.89,0 623.66,-131.94 836.12,-344.41 214.38,-214.38 346.32,-510.15 346.32,-838.04 0,-326.54 -132.48,-622.3 -346.32,-836.96 z m 13364.85,18164.75 c -220.44,-220.44 -525.53,-357.05 -862.51,-357.05 -336.72,0 -642.09,136.61 -862.53,357.05 -220.44,220.44 -357.05,525.8 -357.05,862.53 0,336.97 136.61,642.06 357.05,862.51 220.44,220.44 525.8,357.05 862.53,357.05 336.97,0 642.06,-136.61 862.51,-357.05 220.44,-220.44 357.05,-525.53 357.05,-862.51 0,-336.72 -136.61,-642.09 -357.05,-862.53 z M 2887.4855,8022.734 c -220.44,-220.44 -525.56,-357.05 -862.53,-357.05 -336.7,0 -642.06,136.61 -862.51,357.05 -220.44,220.44 -357.05,525.8 -357.05,862.51 0,337 136.61,642.09 357.05,862.53 220.44,220.44 525.8,357.05 862.51,357.05 336.97,0 642.09,-136.61 862.53,-357.05 220.42,-220.44 357.03,-525.53 357.03,-862.53 0,-336.7 -136.61,-642.06 -357.03,-862.51 z m 27066.9405,0 c -220.42,-220.44 -525.53,-357.05 -862.51,-357.05 -336.7,0 -642.06,136.61 -862.51,357.05 -220.44,220.44 -357.05,525.8 -357.05,862.51 0,337 136.61,642.09 357.05,862.53 220.44,220.44 525.8,357.05 862.51,357.05 336.97,0 642.09,-136.61 862.51,-357.05 220.44,-220.44 357.05,-525.53 357.05,-862.53 0,-336.7 -136.61,-642.06 -357.05,-862.51 z M 3033.1455,18521.604 c -220.44,-220.44 -525.53,-357.05 -862.51,-357.05 -336.7,0 -642.09,136.61 -862.53,357.05 -220.42,220.44 -357.03,525.8 -357.03,862.53 0,336.97 136.61,642.06 357.03,862.51 220.44,220.44 525.83,357.05 862.53,357.05 336.97,0 642.06,-136.61 862.51,-357.05 220.44,-220.44 357.05,-525.53 357.05,-862.51 0,-336.72 -136.61,-642.09 -357.05,-862.53 z m 5725.65,-16287.72 c -220.44,-220.44 -525.56,-357.05 -862.53,-357.05 -336.7,0 -642.06,136.61 -862.51,357.05 -220.44,220.44 -357.05,525.8 -357.05,862.51 0,336.97 136.61,642.09 357.05,862.53 220.44,220.42 525.8,357.03 862.51,357.03 336.97,0 642.09,-136.61 862.53,-357.03 220.42,-220.44 357.03,-525.56 357.03,-862.53 0,-336.7 -136.61,-642.06 -357.03,-862.51 z m 15324.3205,0 c -220.42,-220.44 -525.53,-357.05 -862.51,-357.05 -336.7,0 -642.06,136.61 -862.51,357.05 -220.44,220.44 -357.05,525.8 -357.05,862.51 0,336.97 136.61,642.09 357.05,862.53 220.44,220.42 525.8,357.03 862.51,357.03 336.97,0 642.09,-136.61 862.51,-357.03 220.44,-220.44 357.05,-525.56 357.05,-862.53 0,-336.7 -136.61,-642.06 -357.05,-862.51 z m -10103.07,21814.92 c 335.62,-335.62 543.4,-799.85 543.4,-1312.47 0,-540.65 -193.77,-1007.65 -520.85,-1334.44 -328.19,-326.27 -792.44,-521.43 -1335,-521.43 -513.16,0 -977.68,207.53 -1313.31,542.59 -335.06,335.6 -542.57,800.12 -542.57,1313.28 0,177 12.37,304.28 23.36,417.52 43.98,452.96 73.65,758.62 -316.36,1409.22 -114.07,191.02 -251.78,355.11 -423.85,503.54 -162.1605,140.16 -352.3605,264.13 -579.9505,382.06 -391.14,203.12 -756.97,291.08 -1112.37,376.27 -493.36,118.47 -963.11,231.44 -1377.88,761.39 -461.21,589.3 -477.97,1219.55 -240.5,1726.66 110.49,233.08 272.67,443.09 468.35,613.22 197.08,171.51 427.7,302.91 672.86,378.77 535.72,165.47 1158.27,61.55 1677.5,-477.43 476.0605,-493.11 525.8005,-974.12 577.4705,-1484.54 37.94,-373.25 77.24,-759.72 236.39,-1197.83 82.73,-228.42 172.34,-419.73 276.77,-584.36 112.16,-177.3 244.64,-326.54 405.42,-460.4 277.9,-231.71 507.67,-358.42 767.43,-430.43 250.39,-69.26 485.95,-77.78 801.22,-77.78 512.6,0 976.85,-207.8 1312.45,-543.4 z m -3168.32,-18567.98 c 0,512.62 207.8,976.85 543.4,1312.47 334.79,335.87 799.31,543.4 1312.47,543.4 512.6,0 976.85,-207.8 1312.45,-543.4 335.62,-335.62 543.4,-799.85 543.4,-1312.47 0,-513.16 -207.51,-977.68 -542.57,-1313.28 -336.43,-334.79 -800.68,-542.59 -1313.28,-542.59 -513.16,0 -977.68,207.53 -1313.31,542.59 -335.06,335.6 -542.57,800.12 -542.57,1313.28 z m 4746.86,14017.93 c 243.51,0 484.03,-34.09 689.06,-101.43 l 30.24,-7.68 c 181.96,-47.29 366.4,-106.93 549.73,-166.03 909.24,-293.56 1827.55,-589.3 3298.32,49.48 897.97,389.47 1330.07,936.18 1743.17,1459.51 377.66,477.72 736.9,932.6 1533.45,1120.06 454.9,107.2 928.48,48.94 1344.62,-143.75 413.94,-191.58 772.09,-517.56 1000.22,-946.61 75.05,-137.17 126.98,-264.96 161.91,-396.9 34.63,-132.21 53.04,-271.29 57.7,-430.43 14.58,-467.81 -123.4,-914.73 -372.44,-1283.05 -248.2,-367.23 -605.25,-654.19 -1028.24,-800.41 -772.63,-267.98 -1321.26,-75.57 -1897.92,126.44 -627.51,220.17 -1283.07,449.94 -2251.11,298.78 -1585.41,-247.66 -2202.47,-990.05 -2814.05,-1725.31 -270.19,-325.17 -539.82,-649.5 -895.49,-891.1 -184.98,-125.61 -374.08,-216.32 -562.91,-275.15 -197.08,-61.58 -392.24,-88.5 -580.51,-85.75 h -11.54 c -188.29,-2.75 -383.99,24.18 -580.8,85.75 -188.54,58.83 -377.93,149.54 -562.91,275.15 -355.67,241.6 -625.3,565.93 -895.49,891.1 -611.56,735.25 -1228.63,1477.65 -2814.02,1725.31 -967.7905,151.16 -1623.6205,-78.61 -2251.1105,-298.78 -576.68,-202.01 -1125.28,-394.43 -1897.94,-126.44 -423,146.23 -780.04,433.18 -1028.24,800.41 -249.03,368.31 -387.01,815.24 -372.44,1281.13 4.93,160.51 23.09,300.13 57.99,432.35 33.26,126.98 86.29,255.07 161.61,396.9 228.15,429.06 586.28,755.03 1000.22,946.61 416.15,192.68 889.72,250.95 1344.62,143.75 796.56,-187.46 1155.79,-642.33 1533.45,-1120.06 413.13,-523.33 845.2005,-1070.04 1741.2605,-1459.51 1472.69,-638.77 2391,-343.03 3300.24,-49.48 183.33,59.1 367.77,118.74 549.73,166.03 l 30.24,7.68 c 205.05,67.34 445.55,101.43 689.36,101.43 z m -3423.39,-5332.03 c 0,-98.12 -14.58,-198.18 -43.44,-329.02 -14.28,-65.41 -34.09,-136.61 -58.54,-211.36 -154.76,-476.06 -469.21,-925.73 -894.14,-1220.39 -410.63,-285.04 -931.77,-423.56 -1515.8605,-295.2 -79.15,17.33 -153.1,37.38 -220.44,59.1 -407.88,132.75 -757.78,369.69 -1108.5,606.89 -271.84,183.6 -545.05,368.58 -872.69,529.66 -426.04,209.99 -796,326.25 -1182.74,346.05 -390.3,20.05 -772.63,-57.45 -1220.09,-234.46 -471.39,-186.35 -825.96,-439.24 -1170.1,-684.96 -496.67,-354.57 -969.71,-691.54 -1786.32,-649.77 -911.44,46.46 -1504.86,537.07 -1781.66,1164.04 -125.88,285.58 -189.099998,601.67 -189.099998,919.13 0,317.48 63.219998,633.57 189.099998,919.15 276.79,626.95 870.21,1118.41 1781.66,1164.85 829.54,43.44 1305.04,-291.08 1809.98,-647.02 351.53,-247.64 716.01,-504.65 1223.11,-699.52 441.43,-169.32 804.8,-243.24 1173.95,-221.82 372.44,21.45 723.15,134.96 1139.57,338.08 338.08,167.13 612.12,352.38 884.77,536.53 351.01,237.21 701.18,474.14 1109.06,606.92 67.34,21.7 141.29,41.77 220.44,59.08 584.6305,128.65 1105.2305,-10.16 1515.8605,-295.2 424.93,-294.64 739.37,-744.04 894.14,-1220.09 24.45,-75.05 44.25,-146.23 58.54,-211.66 28.86,-130.84 43.44,-231.14 43.44,-329 z m 7626.56,-7373.43 c 335.62,-335.62 543.4,-799.85 543.4,-1312.47 0,-513.16 -207.51,-977.68 -542.57,-1313.28 -336.43,-334.79 -800.68,-542.59 -1313.28,-542.59 -513.16,0 -977.68,207.53 -1313.31,542.59 -335.06,335.6 -542.57,800.12 -542.57,1313.28 0,512.62 207.8,976.85 543.4,1312.47 334.79,335.87 799.31,543.4 1312.47,543.4 512.6,0 976.85,-207.8 1312.45,-543.4 z m 0,17255.51 c 335.62,-335.62 543.4,-799.85 543.4,-1312.47 0,-513.16 -207.51,-977.68 -542.57,-1313.28 -336.43,-334.79 -800.68,-542.59 -1313.28,-542.59 -513.16,0 -977.68,207.53 -1313.31,542.59 -335.06,335.6 -542.57,800.12 -542.57,1313.28 0,512.62 207.8,976.85 543.4,1312.47 334.79,335.87 799.31,543.4 1312.47,543.4 512.6,0 976.85,-207.8 1312.45,-543.4 z m -735.79,-10211.38 c -28.86,137.15 -44.25,237.75 -44.25,329.29 0,91.52 15.39,192.12 45.35,329 12.35,65.7 32.15,136.88 56.62,211.66 154.74,475.79 469.18,925.46 894.12,1220.09 410.65,285.04 931.23,423.85 1515.86,295.2 79.15,-17.3 153.1,-37.38 220.44,-59.08 407.9,-132.77 758.05,-369.71 1109.06,-606.92 272.67,-184.15 546.69,-369.39 884.77,-534.59 416.71,-205.05 767.43,-318.56 1139.59,-340.01 369.12,-21.43 732.5,52.5 1173.93,221.82 507.4,194.87 871.59,451.88 1223.14,699.52 504.92,355.94 980.43,690.46 1809.95,647.02 911.44,-46.44 1504.86,-537.9 1781.66,-1164.85 125.88,-285.58 189.1,-601.67 189.1,-919.15 0,-317.46 -63.22,-633.55 -189.1,-919.13 -276.79,-626.97 -870.21,-1117.58 -1781.66,-1164.04 -816.61,-41.77 -1289.65,295.2 -1786.32,649.77 -344.14,245.72 -698.71,498.61 -1170.1,684.96 -447.46,177 -829.79,254.51 -1220.09,234.46 -386.45,-19.8 -756.14,-136.06 -1182.74,-346.05 -327.62,-161.07 -600.83,-346.05 -872.69,-529.66 -350.72,-237.21 -700.6,-474.14 -1108.5,-606.89 -67.34,-21.72 -141.29,-41.77 -220.44,-59.1 -584.36,-128.63 -1105.21,10.16 -1515.86,295.2 -424.93,294.66 -739.37,744.33 -894.12,1220.39 -24.47,74.49 -44.27,145.66 -57.72,211.09 z"
   id="path20"
   style="fill:url(#id0)" />
  </g>
  <rect
   class="fil2"
   width="102236.49"
   height="54173.16"
   id="rect23"
   x="0"
   y="0" />
 </g>
</svg>
